HIERARCHY
ROOT root
{
	OFFSET 0.000000 0.000000 0.000000
	CHANNELS 6 Xposition Yposition Zposition Zrotation Yrotation Xrotation
	JOINT lhip
	{
		OFFSET 0.058581 -0.082280 -0.017664
		CHANNELS 3 Zrotation Yrotation Xrotation
		JOINT lknee
		{
			OFFSET 0.043451 -0.386469 0.008037
			CHANNELS 3 Zrotation Yrotation Xrotation
			JOINT lankle
			{
				OFFSET -0.014790 -0.426874 -0.037428
				CHANNELS 3 Zrotation Yrotation Xrotation
				JOINT ltoe
				{
					OFFSET 0.041054 -0.060286 0.122042
					CHANNELS 3 Zrotation Yrotation Xrotation
					End Site
					{
						OFFSET 0.000000 0.000000 0.000000
					}
				}
			}
		}
	}
	JOINT rhip
	{
		OFFSET -0.060310 -0.090513 -0.013543
		CHANNELS 3 Zrotation Yrotation Xrotation
		JOINT rknee
		{
			OFFSET -0.043257 -0.383688 -0.004843
			CHANNELS 3 Zrotation Yrotation Xrotation
			JOINT rankle
			{
				OFFSET 0.019056 -0.420046 -0.034562
				CHANNELS 3 Zrotation Yrotation Xrotation
				JOINT rtoe
				{
					OFFSET -0.034840 -0.062106 0.130323
					CHANNELS 3 Zrotation Yrotation Xrotation
					End Site
					{
						OFFSET 0.000000 0.000000 0.000000
					}
				}
			}
		}
	}
	JOINT lowerback
	{
		OFFSET 0.004439 0.124404 -0.038385
		CHANNELS 3 Zrotation Yrotation Xrotation
		JOINT upperback
		{
			OFFSET 0.004488 0.137956 0.026820
			CHANNELS 3 Zrotation Yrotation Xrotation
			JOINT chest
			{
				OFFSET -0.002265 0.056032 0.002855
				CHANNELS 3 Zrotation Yrotation Xrotation
				JOINT lowerneck
				{
					OFFSET -0.013390 0.211636 -0.033468
					CHANNELS 3 Zrotation Yrotation Xrotation
					JOINT upperneck
					{
						OFFSET 0.010113 0.088937 0.050410
						CHANNELS 3 Zrotation Yrotation Xrotation
						End Site
						{
							OFFSET 0.000000 0.000000 0.000000
						}
					}
				}
				JOINT lclavicle
				{
					OFFSET 0.071702 0.114000 -0.018898
					CHANNELS 3 Zrotation Yrotation Xrotation
					JOINT lshoulder
					{
						OFFSET 0.122921 0.045205 -0.019046
						CHANNELS 3 Zrotation Yrotation Xrotation
						JOINT lelbow
						{
							OFFSET 0.255332 -0.015649 -0.022946
							CHANNELS 3 Zrotation Yrotation Xrotation
							JOINT lwrist
							{
								OFFSET 0.265709 0.012698 -0.007375
								CHANNELS 3 Zrotation Yrotation Xrotation
								End Site
								{
									OFFSET 0.000000 0.000000 0.000000
								}
							}
						}
					}
				}
				JOINT rclavicle
				{
					OFFSET -0.082954 0.112472 -0.023707
					CHANNELS 3 Zrotation Yrotation Xrotation
					JOINT rshoulder
					{
						OFFSET -0.113228 0.046853 -0.008472
						CHANNELS 3 Zrotation Yrotation Xrotation
						JOINT relbow
						{
							OFFSET -0.260127 -0.014369 -0.031269
							CHANNELS 3 Zrotation Yrotation Xrotation
							JOINT rwrist
							{
								OFFSET -0.269108 0.006794 -0.006027
								CHANNELS 3 Zrotation Yrotation Xrotation
								End Site
								{
									OFFSET 0.000000 0.000000 0.000000
								}
							}
						}
					}
				}
			}
		}
	}
}
MOTION
Frames: 13
Frame Time: 0.033333
1.750284 0.770635 0.769443 -91.029506 1.139221 101.740806 8.918456 -5.244137 -53.855896 -11.866655 7.142635 86.518988 2.482079 12.107457 -41.904185 0.000000 -0.000000 0.000000 -2.768009 7.124573 -52.194919 2.144392 -7.128766 87.137414 5.157408 -11.410816 -39.488158 0.000000 -0.000000 0.000000 -2.406983 -0.856895 39.284347 2.718959 -0.352378 -7.094600 -0.945657 -2.498360 4.988368 2.746247 5.070667 -26.959395 4.485126 -7.904545 -14.784933 -31.555766 -1.876546 0.152539 -42.111345 -5.697365 8.180294 5.304555 -35.715395 -0.128682 6.053679 -3.108304 -8.921948 33.007497 6.074120 -2.575094 44.325092 7.629656 11.058294 -8.602899 21.561829 -7.946593 0.790513 1.833552 -2.632123 
1.723827 0.768870 0.789404 -91.338995 1.235596 100.428480 6.716346 -6.132866 -47.502463 -11.438651 4.562089 83.103578 1.750716 12.539452 -40.121868 0.000000 -0.000000 0.000000 -1.416766 8.068105 -45.988284 1.725097 -5.736488 83.154605 6.329180 -11.317335 -38.154338 0.000000 -0.000000 0.000000 -2.077500 -0.870191 37.898352 2.534437 -1.102297 -7.166796 -0.570909 -2.416245 4.749686 2.016379 4.552652 -25.970446 4.908451 -7.058308 -14.269201 -27.672717 -5.308686 0.412444 -45.475430 -7.938032 9.521153 6.244592 -44.175740 0.026496 8.806445 -1.731559 -13.444163 28.275802 8.894035 -3.587078 48.475777 8.561346 13.618357 -12.499013 36.025935 -8.733801 -1.207238 1.011563 -8.342396 
1.689326 0.767460 0.822937 -91.218892 0.614010 98.631774 3.442934 -6.728188 -38.132030 -10.475723 1.780227 76.005232 1.960096 13.330386 -37.573786 0.000000 -0.000000 0.000000 0.006236 7.264323 -37.646789 1.215595 -3.481190 76.981925 6.075299 -11.119803 -35.165027 0.000000 -0.000000 0.000000 -1.916884 -0.463051 35.169036 2.372135 -1.780750 -7.305208 -0.343927 -2.376746 4.617608 1.682007 5.051442 -24.386505 4.459589 -6.037419 -12.152600 -23.144312 -7.554421 -0.331871 -46.750321 -9.987503 10.952870 3.464350 -53.149944 6.637307 7.081851 -2.397223 -14.607445 23.337700 9.480122 -5.710685 51.182930 8.339980 16.234197 -17.751811 51.227460 -7.548176 1.777885 1.477707 -10.819600 
1.639621 0.764865 0.875733 -93.411646 -1.076716 94.464981 -1.312630 -2.883136 -22.541680 -9.688827 -1.929432 63.472035 1.639761 12.694893 -31.988425 0.000000 -0.000000 0.000000 0.769739 4.472962 -24.949332 0.194732 1.068019 67.527756 6.577569 -8.790786 -29.093745 0.000000 -0.000000 0.000000 -3.435441 2.003472 33.398396 1.488277 -2.271912 -7.758537 0.652881 -2.313238 4.231685 1.105991 5.049215 -20.396908 4.859458 -3.765383 -10.282652 -18.114226 -8.528841 -1.269926 -47.543694 -10.429610 11.321244 -2.556467 -61.385532 17.237804 9.770823 -4.097267 -13.110116 17.979768 9.273564 -8.044721 53.369866 6.747777 17.218086 -21.918978 63.935206 -6.497754 0.919500 2.477381 -10.178443 
1.588495 0.764508 0.940988 -92.198013 -0.423374 94.597963 0.035930 -1.210097 -13.072347 -10.102820 -4.235403 49.844346 0.133066 9.246850 -19.317909 0.000000 -0.000000 0.000000 0.727073 1.233420 -16.378301 0.594669 0.886443 54.295343 6.187749 -6.105437 -16.414613 0.000000 -0.000000 0.000000 -2.728525 1.389360 23.482269 1.777527 -2.978837 -4.422009 0.546868 -1.932325 4.504251 0.834472 3.228389 -13.813317 5.788357 -3.236217 -11.280923 -13.318784 -7.214256 -2.299493 -48.806013 -11.806051 13.148969 -8.158720 -67.123042 26.047909 10.119587 -4.918626 -14.941581 13.262668 6.760812 -9.260816 54.626915 6.456170 18.588704 -25.540052 73.423298 -7.110006 0.711191 2.592670 -12.924664 
1.531921 0.765319 1.022589 -90.127061 0.346315 95.151689 2.685429 -0.866750 -3.140693 -8.932351 -6.182720 30.818688 -5.526008 5.240988 3.463748 0.000000 -0.000000 0.000000 -0.182121 -2.706589 -6.256004 1.009758 0.429508 34.787073 8.149279 -2.001224 7.124123 0.000000 -0.000000 0.000000 -1.814712 0.913531 12.538781 2.298704 -4.290808 0.660505 0.640466 -1.943306 3.526358 -0.079249 1.329263 -7.842848 5.887700 -1.281325 -7.956122 -12.292180 -5.995152 -0.911250 -48.537322 -12.415854 14.274320 -10.495339 -70.953608 28.444099 10.175566 -6.246462 -15.565750 10.760436 4.079368 -7.285025 54.624895 5.489806 18.590663 -33.634873 78.433388 -15.060826 1.276603 4.345418 -15.979159 
1.473766 0.762558 1.110119 -89.877044 0.538223 95.440576 2.846372 1.027045 4.842889 -2.523628 -5.002875 10.635065 -15.589997 7.384520 35.862764 0.000000 -0.000000 0.000000 -1.172358 -6.016535 1.489332 -0.965713 0.070694 15.226427 13.992219 -1.649526 39.870575 0.000000 -0.000000 0.000000 -1.839257 1.033826 5.781293 1.757534 -4.891997 0.926410 1.825205 -1.806606 3.402196 -4.618126 -5.049043 1.378774 8.037915 2.119815 -8.886324 -11.209131 -4.614190 1.663187 -49.947015 -10.757918 14.093929 -14.083487 -74.668803 30.705877 7.997427 -7.007129 -14.290679 7.274846 2.722658 -4.736758 55.703722 1.740362 17.250643 -30.390004 82.062370 -15.756323 -0.728821 4.209945 -15.506125 
1.430592 0.758802 1.187171 -88.710161 0.475282 96.513444 1.964601 -0.097672 3.023542 -1.633940 -4.141015 10.011477 -13.593962 9.566601 36.351941 0.000000 -0.000000 0.000000 -1.624992 -6.851204 0.687561 -0.188899 -2.364407 13.280222 13.878013 -4.694993 44.129886 0.000000 -0.000000 0.000000 -1.568519 0.449708 1.907961 1.796557 -5.378961 1.329429 1.993192 -2.046966 3.484281 -4.511144 -7.386030 4.039259 6.881863 4.839587 -14.316545 -12.654538 -2.317887 2.416303 -48.392577 -10.513821 13.383583 -22.946815 -76.699150 39.262991 6.820409 -6.696283 -14.982065 8.035590 0.787477 -1.878736 52.717643 1.128773 16.640491 -20.914346 84.070161 -5.816067 -0.137189 4.235464 -14.877893 
1.398215 0.758317 1.253727 -88.369980 0.569315 94.203982 1.705292 -1.428173 1.362329 -5.029700 -2.834620 17.284368 -13.903430 8.897478 34.219590 0.000000 -0.000000 0.000000 -0.611298 -5.156921 -0.403639 -1.352131 -3.346313 20.416391 10.313132 -6.493928 41.333257 0.000000 -0.000000 0.000000 -1.338643 0.625108 5.245176 2.314804 -4.688448 1.173698 1.882483 -2.085936 2.697740 -4.478317 -10.112107 4.926142 5.554911 3.416753 -10.368003 -15.257860 -2.082912 2.039059 -46.891621 -10.462994 13.327945 -18.473891 -75.708594 33.866812 5.314941 -6.807706 -14.775332 10.335294 0.188327 -2.668136 50.188462 -1.667235 17.308114 -13.998919 81.415377 0.032277 0.198834 3.659225 -13.971842 
1.367221 0.758738 1.309365 -87.803616 0.608102 90.971055 1.211933 0.578102 -0.349983 -6.563826 -2.186288 25.686879 -14.194261 7.831177 30.920320 0.000000 -0.000000 0.000000 -0.223498 -5.856871 -0.870669 -1.720995 -2.009345 26.853332 11.293936 -4.328279 37.484773 0.000000 -0.000000 0.000000 -0.839107 0.389884 9.729804 1.970924 -4.600020 0.689915 1.721858 -2.135021 4.056068 -5.444144 -9.959451 7.714553 4.806091 2.625868 -8.853755 -16.310313 -2.099362 1.454216 -48.031119 -10.343572 12.581398 -11.968767 -72.156353 25.557716 6.568262 -4.912134 -14.371674 11.341727 0.185370 -3.335727 50.376894 -1.499886 16.435334 -0.426908 73.512332 10.562027 -1.253770 2.772339 -12.010720 
1.336403 0.760809 1.353269 -87.932639 0.886135 89.416720 1.618968 0.783906 -3.228073 -6.511938 1.661300 31.403591 -14.131169 7.526092 29.733982 0.000000 -0.000000 0.000000 0.415239 -4.937552 -2.275472 -0.592178 -0.155800 28.504157 9.553183 -4.220222 36.904911 0.000000 -0.000000 0.000000 -0.904661 0.371990 11.450716 2.059495 -4.377409 2.768526 1.709402 -2.295003 4.587818 -4.773646 -11.491969 6.721564 4.576374 2.176990 -8.638077 -18.237665 -1.907896 0.661900 -49.006399 -10.040542 12.815396 -5.890661 -67.818561 19.207776 6.604658 -4.078319 -12.580417 12.940672 0.818038 -3.197688 50.239766 -0.258069 16.603226 -1.098417 64.441793 8.837581 7.445864 0.389049 -9.323285 
1.306451 0.762420 1.388068 -87.944759 1.203539 88.500142 1.743214 -0.907849 -6.066759 -6.856798 2.473820 35.244579 -12.264166 8.352967 27.583910 0.000000 -0.000000 0.000000 0.852354 -3.409448 -3.673117 -0.744373 -1.385123 27.501041 9.925373 -3.609267 32.415947 0.000000 -0.000000 0.000000 -0.888875 0.490388 13.116641 2.176420 -4.537802 3.985783 1.522217 -2.274284 4.528254 -3.573954 -10.327687 6.311743 3.607558 -0.161199 -7.587059 -21.105729 -1.824969 0.965915 -48.490623 -9.632112 13.013024 -3.395252 -63.332014 16.203252 5.693224 -3.995989 -8.859021 16.592096 1.803385 -2.252530 48.540875 1.763503 16.174350 1.631250 54.924925 9.775173 -1.802882 2.617337 -4.289903 
1.275016 0.762545 1.411806 -87.010670 1.429718 87.989534 1.719505 -2.442792 -9.090206 -6.445299 1.872784 37.368928 -11.192022 8.530459 26.004301 0.000000 -0.000000 0.000000 0.785751 -3.733151 -4.790954 -0.906874 -2.400766 24.794164 9.590365 -3.655972 29.988646 0.000000 -0.000000 0.000000 -0.941463 0.550737 14.868089 2.336512 -5.086995 4.016745 1.695053 -2.336987 3.938084 -4.837546 -9.659372 10.391608 3.317860 -0.236878 -7.644966 -23.429553 -1.776604 2.373125 -48.888759 -9.092547 12.923289 -2.447765 -58.242121 15.350989 3.426458 -3.808038 -7.117695 18.949708 2.696716 -0.817271 47.934723 1.737211 15.596010 1.220776 47.595914 9.434869 -1.940455 1.524661 -2.041958 
